<?xml version="1.0" encoding="UTF-8" standalone="no"?>
<svg
   xmlns:dc="http://purl.org/dc/elements/1.1/"
   xmlns:cc="http://creativecommons.org/ns#"
   xmlns:rdf="http://www.w3.org/1999/02/22-rdf-syntax-ns#"
   xmlns:svg="http://www.w3.org/2000/svg"
   xmlns="http://www.w3.org/2000/svg"
   viewBox="0 0 43.696918 50.465008"
   height="50.465008"
   width="43.696918"
   id="svg4758"
   version="1.1">
  <metadata
     id="metadata4764">
    <rdf:RDF>
      <cc:Work
         rdf:about="">
        <dc:format>image/svg+xml</dc:format>
        <dc:type
           rdf:resource="http://purl.org/dc/dcmitype/StillImage" />
        <dc:title></dc:title>
      </cc:Work>
    </rdf:RDF>
  </metadata>
  <defs
     id="defs4762" />
  <path
     id="path9243"
     d="m 16.148005,50.448853 c -1.685797,-0.660326 -3.361343,-2.02165 -5.224149,-1.578651 -1.0124727,0.94667 -1.5714927,-1.684392 -1.4778207,-2.086734 0.9623817,-0.595094 3.3138857,-4.012848 0.398967,-4.400526 -1.694792,-1.145675 -3.744094,-1.36398 -4.745747,-3.106812 -1.442829,-0.95124 -3.338833,-1.182097 -5.04818597,-2.110286 -0.213764,-0.294042 0.211033,-3.546171 1.89404597,-2.348064 1.249475,-0.0054 2.526271,2.109195 2.972878,-0.155279 0.970039,-1.014113 0.348492,-2.531794 0.883547,-3.363758 1.36289,-0.01784 -0.212407,-2.851511 2.050711,-2.707186 1.34038,-0.275014 1.783772,-1.387342 1.007557,-2.238545 0.620713,-1.854238 1.1710727,-4.04773 2.4657947,-5.463863 2.093753,-0.01373 0.472038,2.397566 2.257387,2.468309 1.096013,0.959647 0.338288,-2.601227 2.129394,-1.221223 1.491915,0.788172 -1.352816,1.802723 0.693651,2.17425 1.556702,-0.615707 3.829346,-1.961441 1.82038,-3.668132 -2.529026,-1.297695 1.73396,-6.347675 2.682286,-3.395167 -0.317421,1.44216 0.759161,2.49384 1.653103,0.910842 0.921083,-1.37659 3.033062,-3.849211 3.561186,-1.191727 0.610972,1.043236 2.141473,-0.624056 2.371614,-1.191323 -0.747465,-1.266528 0.419158,-3.100301 0.178326,-4.783862 1.413427,-1.2130434 -1.676548,-1.6579164 -0.0343,-2.9788224 -0.579923,-1.301822 -1.330551,-3.233798 -3.007031,-1.711693 -2.198122,0.208156 -3.340339,-4.392418 -1.415837,-5.099811 1.124367,0.592626 2.353073,-0.46801901 2.919192,0.574645 2.134071,-0.402228 4.247565,-0.92240001 6.381273,-1.30389201 0.946477,-0.419922 2.039859,-0.935157 2.073108,0.311224 2.95732,-1.197403 2.923011,2.37232801 3.255027,3.95045801 2.023184,-0.132081 -0.486428,1.877819 0.920944,2.963225 1.45725,1.362291 -1.132575,4.8470524 -1.195532,1.81221 -1.022281,-0.746448 -3.910341,-0.09865 -2.39141,1.3656894 -1.686297,1.35197 -3.002665,-0.403167 -2.378399,-2.0915854 -1.514109,-0.335274 -4.530298,0.918628 -3.479743,3.0776924 -1.21207,1.445125 -1.156395,5.418414 1.739043,4.447481 1.520784,1.319325 -0.345992,5.746391 1.270287,7.190034 0.889254,0.369294 3.536552,1.229723 1.925432,-0.547656 0.243436,-2.699532 2.413695,0.444468 2.509352,1.726214 0.664251,1.726575 2.23203,1.456918 3.1108,2.80996 -0.38318,1.061787 1.99837,0.739538 2.38206,1.84403 1.39616,1.242337 -1.0813,2.069952 0.0532,3.616981 1.21985,1.891766 -2.17644,1.972064 -1.79074,3.70227 -1.33165,-0.262183 0.44208,2.568533 -1.5255,1.289802 -1.40956,-0.855154 -1.94589,0.990835 -3.388668,-0.177821 -0.843693,-0.375275 -2.348395,-1.64178 -1.512599,0.144208 0.314554,1.471231 1.591874,3.018742 0.600162,4.387897 -1.241495,0.833468 -5.002092,-1.511363 -4.031306,1.070272 0.485032,2.010874 -2.271735,-0.449423 -3.348967,0.495046 -2.266177,-0.89983 -4.019763,0.807022 -4.599705,2.917895 -1.587697,1.791591 -4.507797,0.758969 -6.567698,2.313922 -0.537379,0.17113 -0.624885,1.536976 -0.99739,1.357862 z"
     style="fill:#ffdf6c;stroke-width:0.10400636;fill-opacity:1" />
</svg>
